<svg height="256pt" preserveAspectRatio="xMidYMid meet" viewBox="0 0 256 256" width="256pt" xmlns="http://www.w3.org/2000/svg"><g transform="matrix(.1 0 0 -.1 0 256)"><path d="m2169 2412c-24-15-139-120-139-125 0-2 59-58 131-126l130-124 56 54c68 67 83 95 83 157 0 57-35 115-97 156-46 32-123 36-164 8z"/><path d="m413 2240c-137-49-242-168-272-310-9-40-11-247-9-775l3-720 32-68c61-128 180-222 312-247 72-13 1380-13 1451 0 160 30 284 139 331 289 18 59 19 96 19 639v577l-57-60c-32-33-202-208-378-390-323-332-415-429-415-436 0-2 69-3 154-1l154 3 156 159c86 88 157 160 159 160 1 0 0-134-3-297-5-289-6-299-28-335-13-20-40-47-60-60l-37-23-695-3c-484-2-706 0-733 8-47 14-106 65-123 107-11 26-14 167-14 733 0 676 1 702 20 739 24 48 70 87 118 101 23 6 209 10 488 10h452l91 104c50 57 91 107 91 110s-260 6-577 5c-536 0-582-2-630-19z"/><path d="m1629 1884-354-354 128-127 127-128 355 355c195 195 355 357 355 360s-58 60-128 127l-129 121z"/><path d="m1142 1260c-44-110-77-200-73-200 7 0 381 157 387 162 3 3-226 238-232 238-1 0-38-90-82-200z"/><path d="m840 1058c-7-24-27-99-46-167-42-146-41-165 3-169 36-4 30-16 88 192 43 155 43 180-2 184-30 3-33 1-43-40z"/><path d="m627 968c-106-63-102-105 16-168 72-38 99-36 105 8 3 17-8 27-52 49l-55 27 52 31c54 32 67 56 47 80-18 22-38 17-113-27z"/><path d="m942 998c-23-23-11-43 44-72l56-30-44-22c-55-28-72-47-63-73 11-36 39-33 113 9 108 63 110 104 8 163-69 39-94 45-114 25z"/><path d="m534 615c-11-27 7-35 86-35 78 0 93 7 83 38-7 19-162 17-169-3z"/><path d="m763 615c-3-9-1-21 4-26s99-8 229-7c211 3 219 4 219 23s-8 20-223 23c-195 2-223 0-229-13z"/><path d="m540 505c-10-12-10-18 0-30 11-13 45-15 229-13 202 3 216 4 219 22 2 10-2 22-10 27-7 5-106 9-219 9-172 0-209-3-219-15z"/><path d="m1062 511c-8-5-12-17-10-27 3-16 14-19 81-22 63-2 78 0 83 13 12 30-15 45-80 45-33 0-67-4-74-9z"/></g></svg>